<?xml version="1.0" standalone="no"?>
<!DOCTYPE svg PUBLIC "-//W3C//DTD SVG 20010904//EN"
 "http://www.w3.org/TR/2001/REC-SVG-20010904/DTD/svg10.dtd">
<svg version="1.0" xmlns="http://www.w3.org/2000/svg"
 width="96.000000pt" height="96.000000pt" viewBox="0 0 96.000000 96.000000"
 preserveAspectRatio="xMidYMid meet">
<metadata>
Created by potrace 1.14, written by Peter Selinger 2001-2017
</metadata>
<g transform="translate(0.000000,96.000000) scale(0.100000,-0.100000)"
fill="#000000" stroke="none">
<path d="M423 939 c-25 -7 -33 -15 -33 -33 0 -24 -21 -36 -68 -36 -23 0 -140
-45 -156 -60 -8 -8 19 -107 35 -124 5 -6 9 -31 9 -57 0 -44 -2 -47 -22 -41
l-22 5 22 -28 c16 -20 19 -31 11 -35 -8 -6 -8 -9 0 -14 18 -11 13 -34 -9 -41
-12 -4 -24 -22 -31 -45 -13 -44 -1 -88 35 -124 12 -12 15 -21 8 -24 -6 -2 -9
-9 -6 -16 3 -8 -2 -16 -11 -20 -9 -3 -15 -14 -14 -23 0 -10 0 -20 -1 -23 -9
-24 -4 -51 11 -55 14 -5 17 -15 16 -45 -2 -37 -1 -40 25 -40 15 0 30 5 34 11
11 18 64 2 86 -26 24 -30 51 -32 103 -5 22 11 45 20 53 20 16 0 42 -24 42 -39
0 -16 30 -13 36 4 5 12 26 24 57 31 4 1 39 2 77 3 l70 1 0 29 c0 16 6 31 15
34 8 4 21 23 30 43 14 34 14 39 0 54 -14 16 -14 21 2 54 17 36 16 37 -4 58
l-22 21 20 40 20 39 -22 24 c-12 13 -40 32 -61 41 -21 9 -38 20 -38 25 0 4 -6
5 -14 2 -17 -7 -62 21 -71 44 -4 10 1 21 11 29 17 12 16 13 -3 13 -28 0 -40
-45 -18 -66 21 -22 19 -49 -5 -51 -11 -1 -20 4 -20 11 0 7 -11 23 -24 35 -14
13 -22 29 -19 37 3 8 -1 14 -9 14 -7 0 -14 9 -14 19 0 11 4 17 8 15 4 -3 8 -1
8 5 0 10 57 25 75 19 6 -2 9 -7 7 -13 -1 -5 4 -2 11 7 8 10 26 22 40 27 26 10
27 9 28 -22 l2 -32 6 35 c5 30 11 35 44 43 37 9 67 45 67 80 0 27 -75 76 -126
82 -128 14 -131 15 -131 42 0 13 -5 29 -11 35 -15 15 -100 19 -139 7z m-159
-285 c17 -17 23 -128 8 -138 -5 -3 -19 6 -30 19 -17 19 -22 38 -22 80 0 59 13
70 44 39z m256 -78 c0 -34 5 -56 13 -59 8 -4 7 -6 -4 -6 -23 -1 -59 45 -59 77
0 33 7 42 32 42 15 0 18 -8 18 -54z m57 -61 c8 -22 -6 -33 -17 -15 -13 20 -12
30 0 30 6 0 13 -7 17 -15z m93 -5 c0 -5 -2 -10 -4 -10 -3 0 -8 5 -11 10 -3 6
-1 10 4 10 6 0 11 -4 11 -10z m37 -6 c-3 -3 -12 -4 -19 -1 -8 3 -5 6 6 6 11 1
17 -2 13 -5z m-170 -26 c-3 -8 -6 -5 -6 6 -1 11 2 17 5 13 3 -3 4 -12 1 -19z
m0 -50 c-3 -7 -5 -2 -5 12 0 14 2 19 5 13 2 -7 2 -19 0 -25z m-344 -20 c-13
-12 -25 -19 -29 -15 -10 10 16 37 34 37 13 0 12 -4 -5 -22z m344 -45 c-3 -10
-5 -4 -5 12 0 17 2 24 5 18 2 -7 2 -21 0 -30z m-281 -68 c18 -14 18 -14 -8
-15 -18 0 -28 5 -28 15 0 19 11 19 36 0z m349 -55 c-3 -5 -14 -10 -23 -9 -14
0 -13 2 3 9 27 11 27 11 20 0z m175 -34 c0 -3 -4 -8 -10 -11 -5 -3 -10 -1 -10
4 0 6 5 11 10 11 6 0 10 -2 10 -4z"/>
<path d="M555 610 c-3 -5 -1 -10 4 -10 6 0 11 5 11 10 0 6 -2 10 -4 10 -3 0
-8 -4 -11 -10z"/>
<path d="M711 564 c0 -11 3 -14 6 -6 3 7 2 16 -1 19 -3 4 -6 -2 -5 -13z"/>
</g>
</svg>
